# xmcd
#
# Track frame offsets: 
#        150
#        20798
#        38252
#        55278
#        76437
#        95771
#        109578
#        123641
#        141815
#        156885
#        187135
#
# Disc length: 3796 seconds
#
# Revision: 0
# Processed by: cddbd v1.5.2PL0 Copyright (c) Steve Scherf et al.
# Submitted via: ExactAudioCopy v0.99pb5
#
DISCID=950ed20b
DTITLE=Los Ultimos Héroes - Los Ultimos Héroes
DYEAR=2006
DGENRE=Rock
TTITLE0=Amanecer
TTITLE1=Dando Vueltas
TTITLE2=Silencio
TTITLE3=Solo Tú
TTITLE4=Mujer Azul
TTITLE5=Susy
TTITLE6=Nada Es Igual
TTITLE7=El Tren Llegó A Mi Pueblo
TTITLE8=Son Estos Días
TTITLE9=Llamame
TTITLE10=Data Track
EXTD=
EXTT0=
EXTT1=
EXTT2=
EXTT3=
EXTT4=
EXTT5=
EXTT6=
EXTT7=
EXTT8=
EXTT9=
EXTT10=
PLAYORDER=
